<svg xmlns="http://www.w3.org/2000/svg" viewBox="0 0 64 64" fill="none">
  <!-- Cloud background -->
  <path d="M52 36c0-6.627-5.373-12-12-12-.34 0-.676.014-1.008.042A16 16 0 0 0 10 28c0 .338.01.673.03 1.006A10 10 0 0 0 12 48h38a10 10 0 0 0 2-19.8z" fill="#0078D4"/>
  
  <!-- AI Brain symbol -->
  <circle cx="32" cy="32" r="8" fill="white"/>
  <path d="M28 30h8M32 26v12" stroke="#0078D4" stroke-width="2" stroke-linecap="round"/>
  <circle cx="28" cy="30" r="1.5" fill="#0078D4"/>
  <circle cx="36" cy="30" r="1.5" fill="#0078D4"/>
  <circle cx="32" cy="26" r="1.5" fill="#0078D4"/>
  <circle cx="32" cy="38" r="1.5" fill="#0078D4"/>
  <circle cx="28" cy="34" r="1.5" fill="#0078D4"/>
  <circle cx="36" cy="34" r="1.5" fill="#0078D4"/>
  
  <!-- Connection lines -->
  <path d="M28 30l-4 4M36 30l4 4M28 34l-4-4M36 34l4-4" stroke="#0078D4" stroke-width="1.5" stroke-linecap="round" opacity="0.6"/>
</svg>
